<svg width="28" height="28" viewBox="0 0 28 28" fill="none" xmlns="http://www.w3.org/2000/svg">
<g clip-path="url(#clip0_6194_1650)">
<path d="M6.80121 18.2344L10.1321 21.4911C11.3882 22.7192 12.0163 23.3333 12.7968 23.3333C13.2764 23.3333 13.6984 23.1014 14.2441 22.6376C14.578 22.3537 14.745 22.2118 14.7524 22.0062C14.7597 21.8006 14.595 21.6389 14.2657 21.3156L6.88305 14.0682C6.65877 13.848 6.54662 13.7379 6.42316 13.7072C6.33927 13.6864 6.25762 13.6884 6.1749 13.7136C6.05316 13.7505 5.94484 13.8683 5.72821 14.1038C5.1874 14.6918 4.91699 15.1283 4.91699 15.629C4.91699 16.3921 5.54506 17.0062 6.80121 18.2344Z" fill="#ABB4C8"/>
<path d="M21.7901 15.3034C24.1815 12.9652 24.1815 9.1742 21.7901 6.836C19.3986 4.4978 15.5213 4.4978 13.1298 6.836L12.6955 7.26066C12.3042 5.74148 11.1401 4.64653 9.78251 4.66694C8.12853 4.6918 6.81368 6.36282 6.84571 8.39927L6.81464 11.6261C6.81258 11.8298 6.81154 11.9317 6.84793 12.0197C6.88431 12.1076 6.95567 12.1777 7.09838 12.3178L15.3006 20.3697C15.6088 20.6722 15.7628 20.8235 15.9533 20.8237C16.1438 20.8239 16.2982 20.6729 16.607 20.3711L21.7901 15.3034Z" fill="#ABB4C8"/>
</g>
<defs>
<clipPath id="clip0_6194_1650">
<rect width="28" height="28" fill="white"/>
</clipPath>
</defs>
</svg>
