<svg width="38" height="38" viewBox="0 0 38 38" fill="none" xmlns="http://www.w3.org/2000/svg">
<g filter="url(#filter0_b_5823_7734)">
<rect width="38" height="38" rx="12" fill="#3468B7" fill-opacity="0.2"/>
</g>
<path fill-rule="evenodd" clip-rule="evenodd" d="M11.9373 13.5374C11 14.4746 11 15.9831 11 19.0001C11 22.0171 11 23.5256 11.9373 24.4628C12.8745 25.4001 14.383 25.4001 17.4 25.4001H20.6C23.617 25.4001 25.1255 25.4001 26.0627 24.4628C27 23.5256 27 22.0171 27 19.0001C27 15.9831 27 14.4746 26.0627 13.5374C25.1255 12.6001 23.617 12.6001 20.6 12.6001H17.4C14.383 12.6001 12.8745 12.6001 11.9373 13.5374ZM24.2609 15.416C24.4731 15.6706 24.4387 16.0489 24.1841 16.261L22.4269 17.7254C21.7178 18.3163 21.1431 18.7952 20.6359 19.1215C20.1075 19.4613 19.5929 19.676 19 19.676C18.4071 19.676 17.8925 19.4613 17.3641 19.1215C16.8569 18.7952 16.2822 18.3163 15.5731 17.7254L13.8159 16.261C13.5613 16.0489 13.5269 15.6706 13.7391 15.416C13.9512 15.1614 14.3295 15.127 14.5841 15.3392L16.3112 16.7784C17.0576 17.4004 17.5758 17.8308 18.0133 18.1122C18.4368 18.3846 18.7239 18.476 19 18.476C19.2761 18.476 19.5632 18.3846 19.9867 18.1122C20.4242 17.8308 20.9424 17.4004 21.6888 16.7784L23.4159 15.3392C23.6705 15.127 24.0488 15.1614 24.2609 15.416Z" fill="#3468B7"/>
<defs>
<filter id="filter0_b_5823_7734" x="-10.1609" y="-10.1609" width="58.3217" height="58.3217" filterUnits="userSpaceOnUse" color-interpolation-filters="sRGB">
<feFlood flood-opacity="0" result="BackgroundImageFix"/>
<feGaussianBlur in="BackgroundImageFix" stdDeviation="5.08043"/>
<feComposite in2="SourceAlpha" operator="in" result="effect1_backgroundBlur_5823_7734"/>
<feBlend mode="normal" in="SourceGraphic" in2="effect1_backgroundBlur_5823_7734" result="shape"/>
</filter>
</defs>
</svg>
