<svg width="180" height="180" viewBox="0 0 180 180" fill="none" xmlns="http://www.w3.org/2000/svg">
<path fill-rule="evenodd" clip-rule="evenodd" d="M8.86511 128.169C9.50758 127.94 10.1836 127.636 10.705 127.195C11.3242 126.672 11.576 125.998 11.7451 125.289C11.9622 124.378 12.049 123.407 12.3123 122.494C12.4097 122.155 12.5973 122.027 12.6778 121.97C12.8813 121.827 13.0869 121.788 13.2804 121.803C13.5097 121.819 13.8246 121.906 14.0318 122.29C14.0613 122.345 14.0997 122.429 14.1255 122.544C14.1444 122.628 14.1566 122.891 14.1765 123C14.2263 123.267 14.2681 123.535 14.3072 123.803C14.4375 124.698 14.5125 125.458 14.9242 126.28C15.4828 127.396 16.0426 128.078 16.8017 128.381C17.5358 128.673 18.4134 128.618 19.5348 128.389C19.6415 128.363 19.7471 128.341 19.8516 128.323C20.346 128.236 20.8186 128.561 20.9157 129.054C21.0128 129.546 20.6986 130.025 20.2086 130.134C20.1064 130.156 20.0056 130.178 19.9059 130.197C18.3905 130.572 16.6363 131.911 15.6169 133.083C15.3027 133.445 14.8426 134.455 14.3733 135.1C14.027 135.576 13.6378 135.889 13.311 136C13.0921 136.075 12.9075 136.063 12.755 136.025C12.5334 135.971 12.3496 135.851 12.2085 135.66C12.1317 135.555 12.0604 135.415 12.0265 135.237C12.0102 135.151 12.0084 134.932 12.0088 134.833C11.9131 134.504 11.7961 134.183 11.7108 133.851C11.5073 133.059 11.1082 132.558 10.6341 131.895C10.1907 131.275 9.71437 130.886 9.01615 130.575C8.92532 130.553 8.19239 130.373 7.93356 130.27C7.55547 130.119 7.37528 129.866 7.30992 129.73C7.19878 129.499 7.18735 129.297 7.2095 129.129C7.24236 128.88 7.35387 128.667 7.55178 128.496C7.67436 128.389 7.8575 128.285 8.10267 128.235C8.29209 128.195 8.79459 128.172 8.86511 128.169ZM13.1648 126.878C13.1988 126.954 13.235 127.03 13.2734 127.107C14.0916 128.741 15.0065 129.653 16.1187 130.096L16.156 130.11C15.412 130.663 14.7385 131.28 14.2238 131.872C14.0118 132.116 13.7312 132.622 13.4281 133.141C13.1526 132.246 12.7022 131.613 12.1358 130.821C11.703 130.216 11.2496 129.761 10.6924 129.391C11.1248 129.169 11.5372 128.909 11.8965 128.605C12.4947 128.1 12.8901 127.514 13.1648 126.878Z" fill="#FA4A0C"/>
<circle cx="25.1996" cy="19.2001" r="3.6" fill="#FA4A0C"/>
<circle cx="168.6" cy="94.2001" r="3.6" fill="#FA4A0C"/>
<path d="M84.6002 152.4C122.376 152.4 153 121.776 153 84.0001C153 46.2238 122.376 15.6001 84.6002 15.6001C46.8239 15.6001 16.2002 46.2238 16.2002 84.0001C16.2002 121.776 46.8239 152.4 84.6002 152.4Z" fill="url(#paint0_linear_6683_1233)"/>
<path fill-rule="evenodd" clip-rule="evenodd" d="M84.2998 42.6001C91.7556 42.6001 97.7998 36.5559 97.7998 29.1001C97.7998 21.6443 91.7556 15.6001 84.2998 15.6001C76.844 15.6001 70.7998 21.6443 70.7998 29.1001C70.7998 36.5559 76.844 42.6001 84.2998 42.6001ZM84 36.6C87.9765 36.6 91.2 33.3765 91.2 29.4C91.2 25.4236 87.9765 22.2 84 22.2C80.0236 22.2 76.8 25.4236 76.8 29.4C76.8 33.3765 80.0236 36.6 84 36.6Z" fill="#011625"/>
<path d="M84.0296 137.46C98.6264 137.46 110.46 125.627 110.46 111.03C110.46 96.4332 98.6264 84.6001 84.0296 84.6001C69.4327 84.6001 57.5996 96.4332 57.5996 111.03C57.5996 125.627 69.4327 137.46 84.0296 137.46Z" fill="#FA4A0C"/>
<path d="M125.86 91.3793V71.1022C125.86 60.0421 121.467 49.4349 113.646 41.6142C105.825 33.7935 95.2182 29.3999 84.1581 29.3999C73.0979 29.3999 62.4908 33.7935 54.6701 41.6142C46.8494 49.4349 42.4558 60.0421 42.4558 71.1022V91.3793C42.4563 96.0378 41.1384 100.601 38.6546 104.542C36.1707 108.483 32.6223 111.641 28.4195 113.651C27.4535 114.111 26.6381 114.836 26.0682 115.741C25.4982 116.646 25.1972 117.695 25.2002 118.765V118.875C25.1995 119.261 25.275 119.644 25.4224 120.001C25.5697 120.359 25.7861 120.683 26.0591 120.957C26.3321 121.23 26.6564 121.447 27.0133 121.595C27.3703 121.743 27.7529 121.82 28.1393 121.82H140.171C140.558 121.82 140.94 121.743 141.297 121.595C141.654 121.447 141.979 121.23 142.252 120.957C142.525 120.683 142.741 120.359 142.888 120.001C143.036 119.644 143.111 119.261 143.11 118.875V118.765C143.111 117.699 142.809 116.654 142.24 115.752C141.672 114.849 140.859 114.127 139.897 113.667C135.691 111.656 132.141 108.496 129.657 104.552C127.173 100.608 125.857 96.0406 125.86 91.3793Z" fill="#E1DCEB"/>
<path fill-rule="evenodd" clip-rule="evenodd" d="M143.4 121.8H25.2002V118.2H143.4V121.8Z" fill="#011625"/>
<path d="M117.6 67.8002C126.878 67.8002 134.4 60.2786 134.4 51.0002C134.4 41.7218 126.878 34.2002 117.6 34.2002C108.321 34.2002 100.8 41.7218 100.8 51.0002C100.8 60.2786 108.321 67.8002 117.6 67.8002Z" fill="white"/>
<path d="M113.4 50.9937C113.4 49.5036 113.741 48.3321 114.422 47.4793C115.113 46.6266 116.172 46.2002 117.6 46.2002C119.019 46.2002 120.074 46.6309 120.764 47.4923C121.455 48.345 121.8 49.5122 121.8 50.9937C121.8 52.4839 121.455 53.6597 120.764 54.5211C120.074 55.3738 119.019 55.8002 117.6 55.8002C116.172 55.8002 115.113 55.3738 114.422 54.5211C113.741 53.6597 113.4 52.4839 113.4 50.9937ZM118.734 50.9937C118.734 50.3046 118.66 49.7878 118.51 49.4433C118.361 49.0901 118.058 48.9135 117.6 48.9135C117.134 48.9135 116.826 49.0901 116.676 49.4433C116.527 49.7878 116.452 50.3046 116.452 50.9937C116.452 51.6914 116.527 52.2169 116.676 52.57C116.826 52.9146 117.134 53.0869 117.6 53.0869C118.058 53.0869 118.361 52.9146 118.51 52.57C118.66 52.2169 118.734 51.6914 118.734 50.9937Z" fill="#011625"/>
<path fill-rule="evenodd" clip-rule="evenodd" d="M51.6648 130.981C48.7905 133.581 45.9243 136.127 43.127 138.809C42.5231 139.384 42.5003 140.332 43.0717 140.929C43.6448 141.532 44.5978 141.551 45.196 140.978C47.9798 138.313 50.8211 135.787 53.6763 133.206C54.2914 132.647 54.339 131.697 53.7887 131.087C53.2309 130.473 52.28 130.422 51.6648 130.981Z" fill="#011625"/>
<path fill-rule="evenodd" clip-rule="evenodd" d="M116.594 130.983C119.453 133.583 122.303 136.13 125.084 138.812C125.684 139.387 125.702 140.334 125.128 140.93C124.553 141.532 123.601 141.55 123.006 140.977C120.238 138.312 117.413 135.785 114.574 133.204C113.962 132.644 113.919 131.695 114.472 131.086C115.033 130.473 115.983 130.423 116.594 130.983Z" fill="#011625"/>
<path fill-rule="evenodd" clip-rule="evenodd" d="M82.2917 147.778C82.2462 151.645 82.1673 155.47 82.2344 159.336C82.2458 160.168 82.9251 160.826 83.7506 160.81C84.5815 160.797 85.2422 160.111 85.2283 159.284C85.1645 155.439 85.2417 151.647 85.288 147.806C85.2954 146.976 84.6317 146.299 83.8108 146.29C82.982 146.285 82.2991 146.948 82.2917 147.778Z" fill="#011625"/>
<defs>
<linearGradient id="paint0_linear_6683_1233" x1="84.0729" y1="-6.67262" x2="85.4741" y2="233.538" gradientUnits="userSpaceOnUse">
<stop stop-color="#F5F7FB"/>
<stop offset="1" stop-color="#EFEFEF"/>
</linearGradient>
</defs>
</svg>
