<svg width="29" height="28" viewBox="0 0 29 28" fill="none" xmlns="http://www.w3.org/2000/svg">
<g clip-path="url(#clip0_6194_1661)">
<path d="M9.58366 7.46666C7.00633 7.46666 4.91699 9.55599 4.91699 12.1333C4.91699 14.047 6.06881 15.6916 7.71699 16.4117V18.9H20.7837L20.7837 16.4117C22.4318 15.6916 23.5837 14.047 23.5837 12.1333C23.5837 9.55599 21.4943 7.46666 18.917 7.46666C18.6832 7.46666 18.4534 7.48385 18.2288 7.51705C17.6667 5.85951 16.0978 4.66666 14.2503 4.66666C12.4028 4.66666 10.834 5.85951 10.2719 7.51705C10.0473 7.48385 9.81747 7.46666 9.58366 7.46666Z" fill="#ABB4C8"/>
<path d="M20.7821 20.3H7.71857C7.72808 21.6038 7.79486 22.3177 8.26373 22.7866C8.81046 23.3333 9.69041 23.3333 11.4503 23.3333H17.0503C18.8102 23.3333 19.6902 23.3333 20.2369 22.7866C20.7058 22.3177 20.7726 21.6038 20.7821 20.3Z" fill="#ABB4C8"/>
</g>
<defs>
<clipPath id="clip0_6194_1661">
<rect width="28" height="28" fill="white" transform="translate(0.5)"/>
</clipPath>
</defs>
</svg>
