<svg width="28" height="28" viewBox="0 0 28 28" fill="none" xmlns="http://www.w3.org/2000/svg">
<path d="M4.48363 22.7293L6.23784 20.9751L4.48363 19.2209L5.47878 18.2257L7.23299 19.9799L9.76482 17.4481C8.72691 16.1448 8.25577 14.6616 8.35141 12.9984C8.44704 11.3353 9.08214 9.91639 10.2567 8.74181C11.5316 7.46697 13.0645 6.8319 14.8557 6.83659C16.6468 6.84127 18.1794 7.48063 19.4534 8.75468C20.7275 10.0287 21.3668 11.5613 21.3715 13.3524C21.3762 15.1436 20.7415 16.6762 19.4674 17.9503C18.2935 19.1242 16.8746 19.7593 15.2107 19.8556C13.5469 19.952 12.0633 19.4812 10.76 18.4433L8.22815 20.9751L9.98236 22.7293L8.98722 23.7245L7.23301 21.9703L5.4788 23.7245L4.48363 22.7293ZM11.2359 16.966C12.2365 17.9666 13.4397 18.468 14.8456 18.47C16.2514 18.4721 17.4546 17.9728 18.4552 16.9722C19.4558 15.9716 19.9571 14.7684 19.9592 13.3625C19.9612 11.9567 19.4619 10.7535 18.4613 9.7529C17.4607 8.75229 16.2575 8.25097 14.8517 8.24892C13.4459 8.24688 12.2427 8.74615 11.2421 9.74676C10.2415 10.7474 9.74014 11.9506 9.73809 13.3564C9.73604 14.7622 10.2353 15.9654 11.2359 16.966Z" fill="#ABB4C8"/>
<circle cx="17.4686" cy="10.8768" r="5.89752" stroke="#ABB4C8" stroke-width="1.42917"/>
<path d="M23.2545 0.338867C22.9121 0.338867 22.6346 0.616399 22.6346 0.958752C22.6346 1.30111 22.9121 1.57864 23.2545 1.57864H25.8905L21.6855 5.78359C22.0044 6.04782 22.298 6.34142 22.5622 6.66024L26.7671 2.45529V5.09132C26.7671 5.43367 27.0447 5.7112 27.387 5.7112C27.7294 5.7112 28.0069 5.43367 28.0069 5.09132V1.16538C28.0069 0.70891 27.6369 0.338867 27.1804 0.338867H23.2545Z" fill="#ABB4C8"/>
</svg>
