<svg width="14" height="16" viewBox="0 0 14 16" fill="none" xmlns="http://www.w3.org/2000/svg">
<path fill-rule="evenodd" clip-rule="evenodd" d="M8.44262 2.66667C8.44262 1.19391 9.64195 0 11.1214 0C12.6009 0 13.8002 1.19391 13.8002 2.66667C13.8002 4.13943 12.6009 5.33333 11.1214 5.33333C10.3744 5.33333 9.69922 5.02877 9.21386 4.53878L5.50553 7.06364C5.53981 7.23399 5.55777 7.40996 5.55777 7.58975C5.55777 7.94577 5.48742 8.28606 5.35987 8.59709L9.42606 11.2686C9.88752 10.8929 10.4781 10.6667 11.1214 10.6667C12.6009 10.6667 13.8002 11.8606 13.8002 13.3333C13.8002 14.8061 12.6009 16 11.1214 16C9.64195 16 8.44262 14.8061 8.44262 13.3333C8.44262 12.9476 8.52519 12.5804 8.67357 12.2489L4.64025 9.59896C4.16976 10.0079 3.55348 10.2564 2.87898 10.2564C1.39953 10.2564 0.200195 9.06251 0.200195 7.58975C0.200195 6.11699 1.39953 4.92308 2.87898 4.92308C3.72972 4.92308 4.48702 5.3178 4.97735 5.93214L8.57133 3.48514C8.48773 3.22688 8.44262 2.95168 8.44262 2.66667Z" fill="#1C274C"/>
</svg>
