<svg width="29" height="28" viewBox="0 0 29 28" fill="none" xmlns="http://www.w3.org/2000/svg">
<g clip-path="url(#clip0_6633_1645)">
<path d="M9.58366 7.4665C7.00633 7.4665 4.91699 9.55584 4.91699 12.1332C4.91699 14.0468 6.06881 15.6914 7.71699 16.4115V18.8998H20.7837L20.7837 16.4115C22.4318 15.6914 23.5837 14.0468 23.5837 12.1332C23.5837 9.55584 21.4943 7.4665 18.917 7.4665C18.6832 7.4665 18.4534 7.4837 18.2288 7.5169C17.6667 5.85936 16.0978 4.6665 14.2503 4.6665C12.4028 4.6665 10.834 5.85936 10.2719 7.5169C10.0473 7.4837 9.81747 7.4665 9.58366 7.4665Z" fill="#FA4A0C"/>
<path d="M20.7821 20.2998H7.71857C7.72808 21.6036 7.79486 22.3176 8.26373 22.7864C8.81046 23.3332 9.69041 23.3332 11.4503 23.3332H17.0503C18.8102 23.3332 19.6902 23.3332 20.2369 22.7864C20.7058 22.3176 20.7726 21.6036 20.7821 20.2998Z" fill="#FA4A0C"/>
</g>
<defs>
<clipPath id="clip0_6633_1645">
<rect width="28" height="28" fill="white" transform="translate(0.5)"/>
</clipPath>
</defs>
</svg>
