<svg width="110" height="133" viewBox="0 0 110 133" fill="none" xmlns="http://www.w3.org/2000/svg">
<rect x="20" width="70" height="70" rx="35" fill="#FFEBE4"/>
<rect x="38.667" y="29.4001" width="11.2" height="11.2" fill="#FA4A0C"/>
<rect x="72.2666" y="40.5996" width="11.2" height="11.2" transform="rotate(180 72.2666 40.5996)" fill="#F45B25"/>
<path d="M49.8662 29.3999L61.0662 18.2V29.3999L49.8662 40.5999V29.3999Z" fill="#FA4A0C"/>
<path d="M61.0693 40.5998L49.8693 51.7998L49.8693 40.5998L61.0693 29.3998L61.0693 40.5998Z" fill="#FF7848"/>
<path d="M38.667 29.4L61.067 7V18.2L49.867 29.4H38.667Z" fill="#FF7848"/>
<path d="M72.2666 40.6L49.8666 63L49.8666 51.8L61.0666 40.6L72.2666 40.6Z" fill="#FA4A0C"/>
<path d="M7.97805 119H2.89211V89.5918H20.5288V94.2676H7.97805V102.573H18.437V107.208H7.97805V119ZM28.5769 95.2314C27.6746 95.2314 26.9089 94.9238 26.28 94.3086C25.6511 93.6797 25.3367 92.9209 25.3367 92.0322C25.3367 91.1299 25.6511 90.3643 26.28 89.7354C26.9089 89.1064 27.6746 88.792 28.5769 88.792C29.4656 88.792 30.2175 89.1064 30.8328 89.7354C31.448 90.3643 31.7556 91.1299 31.7556 92.0322C31.7556 92.9209 31.4412 93.6797 30.8123 94.3086C30.197 94.9238 29.4519 95.2314 28.5769 95.2314ZM30.9558 119H26.1365V98.2461H30.9558V119ZM48.3555 98.2461V102.245H43.4951V112.027C43.4951 113.709 44.3359 114.55 46.0176 114.55H48.3555V119H44.582C42.7773 119 41.335 118.439 40.2549 117.318C39.1885 116.197 38.6553 114.673 38.6553 112.745V102.245H35.6406V98.2461H38.6553V92.9551H43.4951V98.2461H48.3555ZM69.262 107.023L75.886 89.5918H82.0178V119H77.1164V102.573C77.1164 101.657 77.1985 100.16 77.3625 98.082L69.7952 119H66.1037L58.4953 98.082C58.6731 100.338 58.762 101.835 58.762 102.573V119H53.8811V89.5918H59.9719L66.6164 107.023C67.3547 108.938 67.7991 110.482 67.9495 111.658C68.0998 110.428 68.5373 108.883 69.262 107.023ZM108.256 108.664V109.628H92.0552C92.1372 111.405 92.7388 112.834 93.8598 113.914C94.9809 114.98 96.3413 115.514 97.9409 115.514C99.3354 115.514 100.511 115.179 101.468 114.509C102.425 113.839 103.068 112.943 103.396 111.822H108.01C107.463 114.229 106.308 116.129 104.544 117.523C102.794 118.904 100.593 119.595 97.9409 119.595C94.81 119.595 92.2534 118.556 90.271 116.478C88.3022 114.399 87.3179 111.781 87.3179 108.623C87.3179 106.531 87.7895 104.645 88.7329 102.963C89.6899 101.281 90.9682 99.9824 92.5679 99.0664C94.1811 98.1367 95.9585 97.6719 97.8999 97.6719C101.113 97.6719 103.642 98.6357 105.488 100.563C107.333 102.491 108.256 105.191 108.256 108.664ZM97.9409 101.486C96.5874 101.486 95.4048 101.883 94.3931 102.676C93.3813 103.469 92.6977 104.556 92.3423 105.937H103.724C103.437 104.569 102.794 103.489 101.796 102.696C100.798 101.89 99.5132 101.486 97.9409 101.486Z" fill="#FA4A0C"/>
</svg>
