<svg width="34" height="34" viewBox="0 0 34 34" fill="none" xmlns="http://www.w3.org/2000/svg">
<path d="M24.9998 17.5583C24.9986 18.7339 24.9897 19.7332 24.9229 20.5531C24.8453 21.5046 24.6865 22.2997 24.3309 22.96C24.1741 23.2512 23.9813 23.512 23.7467 23.7467C23.0808 24.4126 22.2324 24.7142 21.1572 24.8588C20.1068 25 18.7606 25 17.0427 25H16.9573C15.2394 25 13.8932 25 12.8428 24.8588C11.7676 24.7142 10.9192 24.4126 10.2533 23.7467C9.66296 23.1563 9.3581 22.4216 9.19598 21.5101C9.03673 20.6147 9.00759 19.5007 9.00154 18.1174C9 17.7655 9 17.3934 9 17.0007V16.9573C8.99999 15.2394 8.99998 13.8932 9.14121 12.8428C9.28576 11.7676 9.58741 10.9192 10.2533 10.2533C10.9192 9.58741 11.7676 9.28576 12.8428 9.14121C13.7769 9.01562 14.9788 9.00172 16.4416 9.00019C16.7499 8.99987 17 9.24989 17 9.55814C17 9.86639 16.7498 10.1162 16.4415 10.1165C14.958 10.1181 13.854 10.1316 12.9915 10.2475C12.0401 10.3754 11.4666 10.6187 11.0426 11.0426C10.6187 11.4666 10.3754 12.0401 10.2475 12.9915C10.1175 13.9589 10.1163 15.2302 10.1163 17C10.1163 17.2161 10.1163 17.4252 10.1165 17.6275L10.8616 16.9756C11.5397 16.3823 12.5618 16.4163 13.199 17.0535L16.3913 20.2458C16.9028 20.7573 17.7078 20.827 18.2996 20.4111L18.5215 20.2552C19.373 19.6567 20.5251 19.7261 21.2987 20.4223L23.4051 22.3181C23.6171 21.8728 23.743 21.2878 23.8103 20.4625C23.8736 19.6849 23.8823 18.7404 23.8835 17.5583C23.8838 17.2501 24.1336 17 24.4419 17C24.7501 17 25.0001 17.25 24.9998 17.5583Z" fill="white"/>
<path fill-rule="evenodd" clip-rule="evenodd" d="M21.4 16.2C19.7029 16.2 18.8544 16.2 18.3272 15.6728C17.8 15.1456 17.8 14.2971 17.8 12.6C17.8 10.9029 17.8 10.0544 18.3272 9.52721C18.8544 9 19.7029 9 21.4 9C23.0971 9 23.9456 9 24.4728 9.52721C25 10.0544 25 10.9029 25 12.6C25 14.2971 25 15.1456 24.4728 15.6728C23.9456 16.2 23.0971 16.2 21.4 16.2ZM23.1696 10.8304C23.4768 11.1375 23.4768 11.6355 23.1696 11.9426L23.1234 11.9889C23.0787 12.0335 23.0164 12.0537 22.9542 12.0426C22.9151 12.0356 22.858 12.0226 22.7898 11.9989C22.6534 11.9516 22.4744 11.8622 22.3061 11.6939C22.1378 11.5256 22.0484 11.3466 22.0011 11.2102C21.9774 11.142 21.9644 11.0849 21.9574 11.0458C21.9463 10.9836 21.9665 10.9213 22.0111 10.8766L22.0574 10.8304C22.3645 10.5232 22.8625 10.5232 23.1696 10.8304ZM21.28 13.8322C21.1646 13.9477 21.1069 14.0054 21.0432 14.055C20.9682 14.1136 20.8869 14.1638 20.801 14.2047C20.7281 14.2395 20.6507 14.2653 20.4958 14.3169L19.6792 14.5891C19.603 14.6145 19.5189 14.5947 19.4621 14.5379C19.4053 14.4811 19.3855 14.397 19.4109 14.3208L19.6831 13.5042C19.7347 13.3493 19.7605 13.2719 19.7953 13.199C19.8362 13.1131 19.8864 13.0318 19.945 12.9568C19.9946 12.8931 20.0523 12.8354 20.1677 12.72L21.6068 11.2809C21.6416 11.2461 21.7015 11.2621 21.7177 11.3085C21.7766 11.4784 21.8872 11.6994 22.0939 11.9061C22.3006 12.1128 22.5216 12.2234 22.6915 12.2823C22.7379 12.2985 22.7539 12.3584 22.7191 12.3932L21.28 13.8322Z" fill="white"/>
</svg>
