<svg width="28" height="28" viewBox="0 0 28 28" fill="none" xmlns="http://www.w3.org/2000/svg">
<g clip-path="url(#clip0_6689_1960)">
<path fill-rule="evenodd" clip-rule="evenodd" d="M4.98 10.1499C4.47557 11.2021 4.65264 12.4327 5.00679 14.894L5.26697 16.7022C5.7219 19.8638 5.94936 21.4446 7.04608 22.3889C8.14281 23.3333 9.7512 23.3333 12.968 23.3333H15.0327C18.2494 23.3333 19.8578 23.3333 20.9546 22.3889C22.0513 21.4446 22.2788 19.8638 22.7337 16.7022L22.9939 14.894C23.348 12.4327 23.5251 11.2021 23.0207 10.1499C22.5162 9.09772 21.4425 8.45814 19.2952 7.17898L18.0027 6.40904C16.0527 5.24743 15.0777 4.66663 14.0003 4.66663C12.923 4.66663 11.948 5.24743 9.99796 6.40904L8.70544 7.17898C6.5581 8.45814 5.48443 9.09772 4.98 10.1499ZM10.5004 19.5998C10.5004 19.2132 10.8138 18.8998 11.2004 18.8998H16.8004C17.187 18.8998 17.5004 19.2132 17.5004 19.5998C17.5004 19.9864 17.187 20.2998 16.8004 20.2998H11.2004C10.8138 20.2998 10.5004 19.9864 10.5004 19.5998Z" fill="#ABB4C8"/>
</g>
<defs>
<clipPath id="clip0_6689_1960">
<rect width="28" height="28" fill="white"/>
</clipPath>
</defs>
</svg>
