<svg width="24" height="30" viewBox="0 0 24 30" fill="none" xmlns="http://www.w3.org/2000/svg">
<path d="M16.3227 4.78675C15.2758 6.04084 13.6007 7.02998 11.9255 6.88868C11.7161 5.193 12.5362 3.39135 13.496 2.27856C14.5429 0.989143 16.3751 0.0706531 17.8583 0C18.0328 1.76633 17.3523 3.49733 16.3227 4.78675Z" fill="#1D2741"/>
<path d="M17.8404 7.22421C15.4149 7.0829 13.3385 8.61961 12.1868 8.61961C11.0177 8.61961 9.25534 7.29486 7.33592 7.33019C4.84067 7.36551 2.51991 8.79624 1.24611 11.0748C-1.37128 15.6319 0.565592 22.3793 3.09574 26.0886C4.33464 27.9256 5.81783 29.9392 7.77215 29.8685C9.62178 29.7979 10.3546 28.6498 12.5882 28.6498C14.8391 28.6498 15.4847 29.8685 17.4391 29.8332C19.4632 29.7979 20.737 27.9962 21.9759 26.1592C23.3893 24.075 23.9651 22.0437 24 21.9377C23.9651 21.9024 20.0914 20.401 20.0565 15.8792C20.0216 12.0993 23.1101 10.2976 23.2497 10.1916C21.5048 7.57747 18.7827 7.29486 17.8404 7.22421Z" fill="#1D2741"/>
</svg>
