<svg width="16" height="16" viewBox="0 0 16 16" fill="none" xmlns="http://www.w3.org/2000/svg">
<path d="M5.08124 14.5935C5.75411 15.4488 6.81115 16 7.99981 16C9.18846 16 10.2455 15.4488 10.9184 14.5935C8.98095 14.856 7.01866 14.856 5.08124 14.5935Z" fill="#FA4A0C"/>
<path d="M13.3991 5.6V6.16328C13.3991 6.83927 13.592 7.50014 13.9536 8.0626L14.8395 9.44092C15.6487 10.6999 15.031 12.4111 13.6235 12.8092C9.94161 13.8507 6.058 13.8507 2.37609 12.8092C0.968642 12.4111 0.350864 10.6999 1.16009 9.44092L2.04604 8.0626C2.40758 7.50014 2.6005 6.83927 2.6005 6.16328V5.6C2.6005 2.5072 5.01785 0 7.9998 0C10.9818 0 13.3991 2.50721 13.3991 5.6Z" fill="#FA4A0C"/>
</svg>
