<svg width="15" height="16" viewBox="0 0 15 16" fill="none" xmlns="http://www.w3.org/2000/svg">
<path d="M7.47609 16H8.12313C10.3493 16 11.4624 16 12.1861 15.2749C12.9098 14.5498 12.9839 13.3604 13.1319 10.9816L13.3453 7.55397C13.4257 6.26326 13.4658 5.61791 13.1028 5.20896C12.7397 4.8 12.1266 4.8 10.9004 4.8H4.69884C3.47262 4.8 2.85951 4.8 2.49645 5.20896C2.13339 5.61791 2.17356 6.26326 2.25391 7.55397L2.46728 10.9816C2.61537 13.3604 2.68941 14.5498 3.41312 15.2749C4.13683 16 5.24992 16 7.47609 16Z" fill="#1D2741"/>
<path d="M0.599609 3.33334C0.599609 2.96515 0.875914 2.66668 1.21675 2.66668L3.34814 2.66632C3.77163 2.65473 4.14522 2.36385 4.28932 1.93353C4.29311 1.92222 4.29747 1.90826 4.31309 1.85762L4.40493 1.55995C4.46113 1.37743 4.51009 1.21842 4.57861 1.07629C4.84928 0.514793 5.35007 0.124882 5.92878 0.0250557C6.07527 -0.000212723 6.2304 -0.000105862 6.40846 1.68429e-05H9.1909C9.36896 -0.000105862 9.52409 -0.000212723 9.67057 0.0250557C10.2493 0.124882 10.7501 0.514793 11.0208 1.07629C11.0893 1.21842 11.1382 1.37743 11.1944 1.55995L11.2863 1.85762C11.3019 1.90826 11.3062 1.92222 11.31 1.93353C11.4541 2.36385 11.9018 2.65509 12.3253 2.66668H14.3825C14.7233 2.66668 14.9996 2.96515 14.9996 3.33334C14.9996 3.70153 14.7233 4 14.3825 4H1.21675C0.875914 4 0.599609 3.70153 0.599609 3.33334Z" fill="#1D2741"/>
</svg>
