<svg width="15" height="14" viewBox="0 0 15 14" fill="none" xmlns="http://www.w3.org/2000/svg">
<path d="M0.813477 7.24992C0.813477 4.10722 0.813477 2.53587 1.78979 1.55956C2.7661 0.583252 4.33745 0.583252 7.48014 0.583252C10.2361 0.583252 11.7837 0.583252 12.7813 1.2417L9.31348 4.70948V3.41659C9.31348 3.14044 9.08962 2.91659 8.81348 2.91659C8.53733 2.91659 8.31348 3.14044 8.31348 3.41659V5.91658C8.31348 6.19273 8.53733 6.41658 8.81348 6.41658H11.3135C11.5896 6.41658 11.8135 6.19273 11.8135 5.91658C11.8135 5.64044 11.5896 5.41658 11.3135 5.41658H10.0206L13.4884 1.9488C14.1468 2.94636 14.1468 4.49392 14.1468 7.24992C14.1468 10.3926 14.1468 11.964 13.1705 12.9403C12.1942 13.9166 10.6228 13.9166 7.48014 13.9166C4.72414 13.9166 3.17659 13.9166 2.17903 13.2581L5.64681 9.79036V11.0833C5.64681 11.3594 5.87067 11.5833 6.14681 11.5833C6.42295 11.5833 6.64681 11.3594 6.64681 11.0833V8.58325C6.64681 8.30711 6.42295 8.08325 6.14681 8.08325H3.64681C3.37067 8.08325 3.14681 8.30711 3.14681 8.58325C3.14681 8.85939 3.37067 9.08325 3.64681 9.08325H4.9397L1.47192 12.551C0.813477 11.5535 0.813477 10.0059 0.813477 7.24992Z" fill="#FA4A0C"/>
</svg>
