<svg width="12" height="14" viewBox="0 0 12 14" fill="none" xmlns="http://www.w3.org/2000/svg">
<path fill-rule="evenodd" clip-rule="evenodd" d="M12 6.39836V9.72728C12 11.7917 12 12.8239 11.5106 13.2749C11.2772 13.49 10.9826 13.6251 10.6687 13.661C10.0107 13.7363 9.24218 13.0566 7.70523 11.6972C7.02585 11.0963 6.68617 10.7959 6.29315 10.7167C6.09962 10.6777 5.90038 10.6777 5.70685 10.7167C5.31383 10.7959 4.97415 11.0963 4.29477 11.6972C2.75782 13.0566 1.98935 13.7363 1.33128 13.661C1.01743 13.6251 0.72281 13.49 0.489404 13.2749C0 12.8239 0 11.7917 0 9.72728V6.39836C0 3.53928 0 2.10974 0.87868 1.22154C1.75736 0.333344 3.17157 0.333344 6 0.333344C8.82843 0.333344 10.2426 0.333344 11.1213 1.22154C12 2.10974 12 3.53928 12 6.39836ZM3.5 3.00001C3.5 2.72387 3.72386 2.50001 4 2.50001H8C8.27614 2.50001 8.5 2.72387 8.5 3.00001C8.5 3.27615 8.27614 3.50001 8 3.50001H4C3.72386 3.50001 3.5 3.27615 3.5 3.00001Z" fill="white"/>
</svg>
