<svg width="28" height="28" viewBox="0 0 28 28" fill="none" xmlns="http://www.w3.org/2000/svg">
<g clip-path="url(#clip0_6198_1735)">
<path d="M5.87127 16.535L6.3544 18.338C6.91836 20.4428 7.20034 21.4951 7.8396 22.1777C8.34436 22.7166 8.99758 23.0937 9.71668 23.2614C10.6274 23.4737 11.6798 23.1918 13.7845 22.6278C15.8893 22.0638 16.9416 21.7818 17.6242 21.1426C17.6808 21.0895 17.7357 21.0348 17.7887 20.9786C17.4768 20.9524 17.1622 20.9022 16.8425 20.8386C16.1928 20.7095 15.4208 20.5026 14.5078 20.2579L14.4081 20.2312L14.385 20.2251C13.3916 19.9589 12.5616 19.736 11.8989 19.4966C11.202 19.2449 10.5688 18.9345 10.031 18.4309C9.29002 17.7369 8.77146 16.8387 8.54091 15.8499C8.37362 15.1324 8.42144 14.4288 8.55188 13.6994C8.67687 13.0004 8.90135 12.1627 9.1703 11.1591L9.1703 11.1591L9.66907 9.29764L9.68661 9.23218C7.8941 9.71505 6.9506 10.0007 6.3214 10.59C5.78248 11.0948 5.40534 11.748 5.23767 12.4671C5.02532 13.3778 5.3073 14.4302 5.87127 16.535Z" fill="#FA4A0C"/>
<path fill-rule="evenodd" clip-rule="evenodd" d="M22.7403 12.8011L22.2572 14.6042C21.6932 16.7089 21.4112 17.7613 20.772 18.4439C20.2672 18.9828 19.614 19.3599 18.8949 19.5276C18.805 19.5485 18.7138 19.5647 18.6203 19.5762C17.7663 19.6815 16.7242 19.4023 14.8271 18.894C12.7223 18.33 11.6699 18.048 10.9874 17.4088C10.4485 16.904 10.0714 16.2508 9.90369 15.5317C9.69134 14.621 9.97332 13.5686 10.5373 11.4639L11.0204 9.6608C11.1015 9.35818 11.1768 9.07712 11.2481 8.81599C11.6729 7.26102 11.9583 6.40553 12.5056 5.82116C13.0104 5.28224 13.6636 4.9051 14.3827 4.73743C15.2934 4.52508 16.3458 4.80706 18.4505 5.37102C20.5553 5.93499 21.6076 6.21697 22.2902 6.85623C22.8291 7.36098 23.2062 8.01421 23.3739 8.73331C23.5863 9.64403 23.3043 10.6964 22.7403 12.8011ZM13.6153 11.9522C13.7153 11.5788 14.0992 11.3572 14.4726 11.4573L18.9802 12.6651C19.3537 12.7651 19.5753 13.149 19.4752 13.5224C19.3751 13.8958 18.9913 14.1174 18.6179 14.0174L14.1102 12.8096C13.7368 12.7095 13.5152 12.3257 13.6153 11.9522ZM12.8902 14.6565C12.9903 14.2831 13.3741 14.0615 13.7475 14.1616L16.4521 14.8863C16.8255 14.9863 17.0471 15.3702 16.9471 15.7436C16.847 16.117 16.4632 16.3386 16.0898 16.2386L13.3852 15.5139C13.0117 15.4138 12.7901 15.03 12.8902 14.6565Z" fill="#FA4A0C"/>
</g>
<defs>
<clipPath id="clip0_6198_1735">
<rect width="28" height="28" fill="white"/>
</clipPath>
</defs>
</svg>
