<svg width="15" height="23" viewBox="0 0 15 23" fill="none" xmlns="http://www.w3.org/2000/svg">
<path d="M6.76234 22.7028V19.9805H4.04011V18.4362H6.76234V14.5073C4.94577 14.3014 3.42935 13.5161 2.21308 12.1514C0.996808 10.7867 0.388672 9.19299 0.388672 7.37025C0.388672 5.39191 1.08537 3.70968 2.47877 2.32356C3.87215 0.937445 5.55739 0.244385 7.5345 0.244385C9.51162 0.244385 11.1969 0.937445 12.5902 2.32356C13.9836 3.70968 14.6803 5.39133 14.6803 7.36851C14.6803 9.19021 14.0722 10.784 12.8559 12.1497C11.6397 13.5155 10.1232 14.3014 8.30667 14.5073V18.4362H11.0289V19.9805H8.30667V22.7028H6.76234ZM7.52974 12.9918C9.0825 12.9918 10.4051 12.4472 11.4975 11.3579C12.5899 10.2687 13.136 8.94775 13.136 7.39498C13.136 5.84222 12.5914 4.51965 11.5022 3.42726C10.413 2.33487 9.09203 1.78867 7.53927 1.78867C5.98651 1.78867 4.66393 2.33328 3.57154 3.42249C2.47916 4.51171 1.93296 5.83269 1.93296 7.38545C1.93296 8.93822 2.47757 10.2608 3.56678 11.3532C4.65599 12.4456 5.97698 12.9918 7.52974 12.9918Z" fill="#ABB4C8"/>
</svg>
