<svg width="136" height="108" viewBox="0 0 136 108" fill="none" xmlns="http://www.w3.org/2000/svg">
<path d="M54.3671 107.735C84.1171 107.735 108.234 83.618 108.234 53.8677C108.234 24.1174 84.1171 0 54.3671 0C24.6171 0 0.5 24.1174 0.5 53.8677C0.5 83.618 24.6171 107.735 54.3671 107.735Z" fill="#F5F7FB"/>
<g filter="url(#filter0_d_7589_5187)">
<path d="M29.9486 24.4209H126.909C127.862 24.4209 128.775 24.7993 129.449 25.4727C130.122 26.1462 130.501 27.0596 130.501 28.0121V45.968C130.501 46.9204 130.122 47.8338 129.449 48.5073C128.775 49.1808 127.862 49.5592 126.909 49.5592H29.9486C28.9961 49.5592 28.0827 49.1808 27.4092 48.5073C26.7358 47.8338 26.3574 46.9204 26.3574 45.968V28.0121C26.3574 27.0596 26.7358 26.1462 27.4092 25.4727C28.0827 24.7993 28.9961 24.4209 29.9486 24.4209V24.4209Z" fill="white"/>
</g>
<path d="M75.9146 30.1667H57.2406C56.0506 30.1667 55.0859 31.1314 55.0859 32.3215C55.0859 33.5115 56.0506 34.4762 57.2406 34.4762H75.9146C77.1046 34.4762 78.0693 33.5115 78.0693 32.3215C78.0693 31.1314 77.1046 30.1667 75.9146 30.1667Z" fill="#D0D5DD"/>
<path d="M88.8427 39.5037H57.2406C56.0506 39.5037 55.0859 40.4684 55.0859 41.6584C55.0859 42.8484 56.0506 43.8131 57.2406 43.8131H88.8427C90.0327 43.8131 90.9974 42.8484 90.9974 41.6584C90.9974 40.4684 90.0327 39.5037 88.8427 39.5037Z" fill="#EAECF0"/>
<path d="M49.3394 36.9901C49.3394 31.2384 44.6767 26.5757 38.9251 26.5757C33.1734 26.5757 28.5107 31.2384 28.5107 36.9901C28.5107 42.7418 33.1734 47.4045 38.9251 47.4045C44.6767 47.4045 49.3394 42.7418 49.3394 36.9901Z" fill="#98A2B3"/>
<path d="M38.278 40.3612C39.1696 40.361 40.0355 40.0627 40.7379 39.5137L42.9465 41.7222L43.6568 41.0119L41.4476 38.8026C42.0026 38.0849 42.2983 37.2005 42.2863 36.2933C42.2743 35.3861 41.9554 34.5097 41.3816 33.8069C40.8078 33.1042 40.0129 32.6165 39.1265 32.4233C38.24 32.2302 37.3143 32.343 36.5001 32.7433C35.6859 33.1437 35.0314 33.808 34.6431 34.6279C34.2548 35.4479 34.1557 36.3752 34.3619 37.2588C34.5681 38.1423 35.0675 38.9299 35.7786 39.4933C36.4898 40.0567 37.3708 40.3626 38.278 40.3612ZM38.278 33.3268C38.8746 33.3268 39.4579 33.5037 39.9539 33.8352C40.45 34.1666 40.8366 34.6378 41.065 35.189C41.2933 35.7402 41.353 36.3467 41.2366 36.9319C41.1202 37.517 40.8329 38.0545 40.411 38.4764C39.9892 38.8983 39.4517 39.1856 38.8665 39.302C38.2814 39.4184 37.6748 39.3586 37.1236 39.1303C36.5724 38.902 36.1013 38.5154 35.7698 38.0193C35.4384 37.5232 35.2615 36.94 35.2615 36.3434C35.2615 35.5433 35.5793 34.776 36.145 34.2103C36.7107 33.6446 37.478 33.3268 38.278 33.3268Z" fill="white"/>
<g filter="url(#filter1_d_7589_5187)">
<path d="M116.135 56.7404H19.1742C17.1908 56.7404 15.583 58.3482 15.583 60.3315V78.2874C15.583 80.2708 17.1908 81.8786 19.1742 81.8786H116.135C118.118 81.8786 119.726 80.2708 119.726 78.2874V60.3315C119.726 58.3482 118.118 56.7404 116.135 56.7404Z" fill="white"/>
</g>
<path d="M65.1411 62.4863H46.4672C45.2772 62.4863 44.3125 63.451 44.3125 64.641C44.3125 65.831 45.2772 66.7957 46.4672 66.7957H65.1411C66.3311 66.7957 67.2958 65.831 67.2958 64.641C67.2958 63.451 66.3311 62.4863 65.1411 62.4863Z" fill="#D0D5DD"/>
<path d="M78.0692 71.8234H46.4672C45.2772 71.8234 44.3125 72.7881 44.3125 73.9781C44.3125 75.1681 45.2772 76.1328 46.4672 76.1328H78.0692C79.2593 76.1328 80.2239 75.1681 80.2239 73.9781C80.2239 72.7881 79.2593 71.8234 78.0692 71.8234Z" fill="#EAECF0"/>
<path d="M38.5669 69.3094C38.5669 63.5577 33.9043 58.895 28.1526 58.895C22.4009 58.895 17.7383 63.5577 17.7383 69.3094C17.7383 75.0612 22.4009 79.7239 28.1526 79.7239C33.9043 79.7239 38.5669 75.0612 38.5669 69.3094Z" fill="#98A2B3"/>
<path d="M27.5046 72.681C28.3961 72.6809 29.2621 72.3825 29.9645 71.8335L32.1731 74.0421L32.8834 73.3317L30.6741 71.1224C31.2292 70.4048 31.5248 69.5203 31.5128 68.6131C31.5009 67.7059 31.182 66.8295 30.6082 66.1268C30.0344 65.424 29.2395 64.9363 28.353 64.7432C27.4666 64.55 26.5408 64.6628 25.7267 65.0632C24.9125 65.4635 24.258 66.1278 23.8697 66.9478C23.4814 67.7678 23.3823 68.6951 23.5885 69.5786C23.7947 70.4621 24.294 71.2497 25.0052 71.8131C25.7163 72.3765 26.5973 72.6824 27.5046 72.681ZM27.5046 65.6466C28.1012 65.6466 28.6844 65.8235 29.1805 66.155C29.6766 66.4865 30.0632 66.9576 30.2915 67.5088C30.5198 68.06 30.5796 68.6665 30.4632 69.2517C30.3468 69.8369 30.0595 70.3744 29.6376 70.7962C29.2157 71.2181 28.6782 71.5054 28.0931 71.6218C27.5079 71.7382 26.9014 71.6785 26.3502 71.4502C25.799 71.2218 25.3279 70.8352 24.9964 70.3391C24.6649 69.843 24.488 69.2598 24.488 68.6632C24.488 67.8631 24.8058 67.0959 25.3715 66.5301C25.9373 65.9644 26.7045 65.6466 27.5046 65.6466Z" fill="white"/>
<defs>
<filter id="filter0_d_7589_5187" x="25.1702" y="23.2337" width="110.08" height="31.0744" filterUnits="userSpaceOnUse" color-interpolation-filters="sRGB">
<feFlood flood-opacity="0" result="BackgroundImageFix"/>
<feColorMatrix in="SourceAlpha" type="matrix" values="0 0 0 0 0 0 0 0 0 0 0 0 0 0 0 0 0 0 127 0" result="hardAlpha"/>
<feOffset dx="1.78082" dy="1.78082"/>
<feGaussianBlur stdDeviation="1.48402"/>
<feColorMatrix type="matrix" values="0 0 0 0 0.230539 0 0 0 0 0.370572 0 0 0 0 0.482993 0 0 0 0.1 0"/>
<feBlend mode="normal" in2="BackgroundImageFix" result="effect1_dropShadow_7589_5187"/>
<feBlend mode="normal" in="SourceGraphic" in2="effect1_dropShadow_7589_5187" result="shape"/>
</filter>
<filter id="filter1_d_7589_5187" x="14.3958" y="55.5531" width="110.08" height="31.0744" filterUnits="userSpaceOnUse" color-interpolation-filters="sRGB">
<feFlood flood-opacity="0" result="BackgroundImageFix"/>
<feColorMatrix in="SourceAlpha" type="matrix" values="0 0 0 0 0 0 0 0 0 0 0 0 0 0 0 0 0 0 127 0" result="hardAlpha"/>
<feOffset dx="1.78082" dy="1.78082"/>
<feGaussianBlur stdDeviation="1.48402"/>
<feColorMatrix type="matrix" values="0 0 0 0 0.230539 0 0 0 0 0.370572 0 0 0 0 0.482993 0 0 0 0.1 0"/>
<feBlend mode="normal" in2="BackgroundImageFix" result="effect1_dropShadow_7589_5187"/>
<feBlend mode="normal" in="SourceGraphic" in2="effect1_dropShadow_7589_5187" result="shape"/>
</filter>
</defs>
</svg>
