<svg width="16" height="16" viewBox="0 0 16 16" fill="none" xmlns="http://www.w3.org/2000/svg">
<rect width="16" height="16" rx="8" fill="#FA4A0C"/>
<path fill-rule="evenodd" clip-rule="evenodd" d="M4.5 12.0002C4.5 11.8345 4.63431 11.7002 4.8 11.7002H11.2C11.3657 11.7002 11.5 11.8345 11.5 12.0002C11.5 12.1659 11.3657 12.3002 11.2 12.3002H4.8C4.63431 12.3002 4.5 12.1659 4.5 12.0002Z" fill="white"/>
<path d="M7.43191 9.52803C7.53373 9.44862 7.62608 9.35626 7.81077 9.17158L10.1774 6.8049C9.85534 6.67084 9.47383 6.45063 9.11303 6.08982C8.75216 5.72895 8.53193 5.34739 8.39788 5.02525L6.03116 7.39197L6.03115 7.39198C5.84647 7.57666 5.75412 7.66901 5.6747 7.77083C5.58102 7.89094 5.5007 8.0209 5.43516 8.15841C5.37961 8.27498 5.33831 8.39887 5.25571 8.64666L4.82016 9.95333C4.77951 10.0753 4.81125 10.2097 4.90214 10.3006C4.99302 10.3915 5.12746 10.4232 5.2494 10.3826L6.55607 9.94702C6.80386 9.86443 6.92776 9.82313 7.04433 9.76757C7.18184 9.70204 7.3118 9.62172 7.43191 9.52803Z" fill="white"/>
<path d="M10.8342 6.14818C11.3256 5.65675 11.3256 4.85999 10.8342 4.36857C10.3427 3.87714 9.54598 3.87714 9.05456 4.36857L8.77071 4.65242L8.78281 4.68811C8.88685 4.988 9.08315 5.38112 9.45244 5.75041C9.82172 6.11969 10.2148 6.316 10.5147 6.42004L10.5503 6.43208L10.8342 6.14818Z" fill="white"/>
</svg>
