<svg width="19" height="19" viewBox="0 0 19 19" fill="none" xmlns="http://www.w3.org/2000/svg">
<path d="M3.88867 11.6526C3.88867 12.1586 4.29585 12.5658 5.11021 13.3801L5.97397 14.2439C6.78833 15.0583 7.19551 15.4654 7.70149 15.4654C8.20747 15.4654 8.61465 15.0583 9.42901 14.2439L14.6116 9.06134C15.4259 8.24698 15.8331 7.8398 15.8331 7.33382C15.8331 6.82784 15.4259 6.42066 14.6116 5.6063L13.7478 4.74254C12.9335 3.92818 12.5263 3.521 12.0203 3.521C11.5703 3.521 11.1985 3.84305 10.5488 4.48717C10.5666 4.50033 10.5837 4.51497 10.5998 4.53111L11.4444 5.37571C11.6194 5.55063 11.6194 5.83423 11.4444 6.00916C11.2695 6.18408 10.9859 6.18408 10.811 6.00916L9.96638 5.16456C9.95013 5.1483 9.93539 5.13111 9.92215 5.11316L9.28153 5.75378C9.29949 5.76701 9.31668 5.78175 9.33293 5.79801L10.5998 7.06491C10.7748 7.23983 10.7748 7.52343 10.5998 7.69836C10.4249 7.87328 10.1413 7.87328 9.96638 7.69836L8.69948 6.43146C8.68323 6.4152 8.66849 6.39801 8.65525 6.38006L8.01463 7.02068C8.03259 7.03391 8.04978 7.04865 8.06603 7.06491L8.91063 7.90951C9.08555 8.08443 9.08555 8.36803 8.91063 8.54296C8.73571 8.71788 8.4521 8.71788 8.27718 8.54296L7.43258 7.69836C7.41633 7.6821 7.40159 7.66491 7.38835 7.64696L6.74773 8.28758C6.76569 8.30081 6.78288 8.31555 6.79913 8.33181L8.06603 9.59871C8.24095 9.77363 8.24095 10.0572 8.06603 10.2322C7.89111 10.4071 7.6075 10.4071 7.43258 10.2322L6.16568 8.96526C6.14943 8.949 6.13469 8.93181 6.12145 8.91386L5.48083 9.55448C5.49879 9.56771 5.51598 9.58245 5.53223 9.59871L6.37683 10.4433C6.55176 10.6182 6.55176 10.9018 6.37683 11.0768C6.20191 11.2517 5.91831 11.2517 5.74338 11.0768L4.89878 10.2322C4.88265 10.216 4.86801 10.199 4.85485 10.1811C4.21073 10.8308 3.88867 11.2026 3.88867 11.6526Z" fill="#F3C24E"/>
</svg>
