<svg width="24" height="24" viewBox="0 0 24 24" fill="none" xmlns="http://www.w3.org/2000/svg">
<path fill-rule="evenodd" clip-rule="evenodd" d="M3.68502 7.2646C4.09113 7.09055 4.56143 7.27867 4.73547 7.68478L4.00016 7.99991C4.73547 7.68478 4.73559 7.68504 4.73547 7.68478L4.73506 7.68382C4.73484 7.6833 4.735 7.68368 4.73506 7.68382L4.73819 7.69091C4.7414 7.69812 4.74691 7.71037 4.75474 7.72734C4.77042 7.76127 4.79537 7.81398 4.82976 7.88277C4.89861 8.02047 5.00494 8.22188 5.15009 8.46573C5.44129 8.95494 5.88371 9.6065 6.48639 10.2556C6.62845 10.4085 6.77879 10.5608 6.93758 10.7104C6.94422 10.7164 6.95078 10.7225 6.95726 10.7288C8.14501 11.841 9.80201 12.7999 12.0002 12.7999C12.9673 12.7999 13.8229 12.6153 14.5769 12.3185C15.5577 11.9324 16.3798 11.3512 17.0527 10.7197C17.8124 10.0066 18.3704 9.23994 18.7388 8.64871C18.9222 8.35424 19.0567 8.10645 19.1441 7.93518C19.1877 7.84964 19.2194 7.78345 19.2395 7.7404C19.2495 7.71888 19.2567 7.70317 19.2609 7.69373L19.2648 7.68478C19.439 7.27889 19.9093 7.0906 20.3153 7.2646C20.7214 7.43864 20.9095 7.90894 20.7355 8.31505L20.0002 7.99991C20.7355 8.31505 20.7356 8.31486 20.7355 8.31505L20.7337 8.31906L20.7309 8.32564L20.7217 8.34632C20.7141 8.36338 20.7034 8.38693 20.6897 8.41648C20.6621 8.47557 20.6221 8.55875 20.5694 8.6621C20.4641 8.86863 20.3074 9.15677 20.0967 9.49485C19.7746 10.0118 19.3218 10.6529 18.7279 11.2993L19.3658 11.9373C19.6783 12.2497 19.6783 12.7562 19.3658 13.0687C19.0534 13.3811 18.5469 13.3811 18.2345 13.0687L17.5623 12.3965C17.1109 12.7611 16.6058 13.105 16.0448 13.4017L16.6707 14.3636C16.9117 14.7339 16.8068 15.2295 16.4365 15.4705C16.0661 15.7114 15.5706 15.6066 15.3296 15.2362L14.5412 14.0246C13.9981 14.1911 13.4178 14.3091 12.8002 14.3644V15.5999C12.8002 16.0417 12.442 16.3999 12.0002 16.3999C11.5583 16.3999 11.2002 16.0417 11.2002 15.5999V14.3646C10.5804 14.3092 10.0003 14.191 9.45887 14.0249L8.67071 15.2362C8.42974 15.6066 7.93418 15.7114 7.56385 15.4705C7.19352 15.2295 7.08864 14.7339 7.32961 14.3636L7.95553 13.4016C7.39544 13.1052 6.89016 12.7613 6.43816 12.3963L5.76584 13.0687C5.45342 13.3811 4.94689 13.3811 4.63447 13.0687C4.32205 12.7562 4.32205 12.2497 4.63447 11.9373L5.27243 11.2993C4.59643 10.5635 4.10237 9.8337 3.77522 9.2841C3.60787 9.00295 3.48295 8.76686 3.39868 8.59831C3.35651 8.51397 3.32443 8.44636 3.30221 8.39827C3.2911 8.37422 3.28245 8.35502 3.27623 8.34104L3.26873 8.32402L3.26633 8.31851L3.26547 8.31652L3.26513 8.31572C3.26498 8.31537 3.26484 8.31505 4.00016 7.99991L3.26513 8.31572C3.09109 7.90962 3.27892 7.43864 3.68502 7.2646Z" fill="#ABB4C8"/>
</svg>
