<svg width="25" height="24" viewBox="0 0 25 24" fill="none" xmlns="http://www.w3.org/2000/svg">
<path d="M12.1441 20H12.7911C15.0173 20 16.1304 20 16.8541 19.2749C17.5778 18.5498 17.6518 17.3604 17.7999 14.9816L18.0133 11.554C18.0936 10.2633 18.1338 9.61791 17.7707 9.20895C17.4077 8.8 16.7946 8.8 15.5683 8.8H9.36681C8.14059 8.8 7.52748 8.8 7.16442 9.20895C6.80136 9.61791 6.84153 10.2633 6.92188 11.554L7.13525 14.9816C7.28333 17.3604 7.35738 18.5498 8.08109 19.2749C8.8048 20 9.91789 20 12.1441 20Z" fill="white"/>
<path d="M5.26758 7.33334C5.26758 6.96515 5.54388 6.66668 5.88472 6.66668L8.01611 6.66632C8.4396 6.65473 8.81319 6.36385 8.95729 5.93353C8.96108 5.92222 8.96544 5.90826 8.98106 5.85762L9.0729 5.55995C9.1291 5.37743 9.17806 5.21842 9.24658 5.07629C9.51725 4.51479 10.018 4.12488 10.5968 4.02506C10.7432 3.99979 10.8984 3.99989 11.0764 4.00002H13.8589C14.0369 3.99989 14.1921 3.99979 14.3385 4.02506C14.9173 4.12488 15.418 4.51479 15.6887 5.07629C15.7572 5.21842 15.8062 5.37743 15.8624 5.55995L15.9542 5.85762C15.9699 5.90826 15.9742 5.92222 15.978 5.93353C16.1221 6.36385 16.5698 6.65509 16.9933 6.66668H19.0504C19.3913 6.66668 19.6676 6.96515 19.6676 7.33334C19.6676 7.70153 19.3913 8 19.0504 8H5.88472C5.54388 8 5.26758 7.70153 5.26758 7.33334Z" fill="white"/>
</svg>
