<svg width="21" height="18" viewBox="0 0 21 18" fill="none" xmlns="http://www.w3.org/2000/svg">
<path d="M17.5 0H3.5C2.08579 0 1.37868 0 0.93934 0.412198C0.5 0.824395 0.5 1.48782 0.5 2.81466V3.50448C0.5 4.54232 0.5 5.06124 0.7596 5.49142C1.0192 5.9216 1.49347 6.18858 2.44202 6.72255L5.35504 8.36238C5.99146 8.72064 6.30967 8.89977 6.53751 9.09758C7.01199 9.50949 7.30408 9.99352 7.43644 10.5872C7.5 10.8722 7.5 11.2058 7.5 11.8729L7.5 14.5424C7.5 15.452 7.5 15.9067 7.75192 16.2613C8.00385 16.6158 8.45128 16.7907 9.34615 17.1406C11.2248 17.875 12.1641 18.2422 12.8321 17.8244C13.5 17.4066 13.5 16.4519 13.5 14.5424V11.8729C13.5 11.2058 13.5 10.8722 13.5636 10.5872C13.6959 9.99351 13.988 9.5095 14.4625 9.09758C14.6903 8.89977 15.0085 8.72064 15.645 8.36238L18.558 6.72255C19.5065 6.18858 19.9808 5.9216 20.2404 5.49142C20.5 5.06124 20.5 4.54232 20.5 3.50448V2.81466C20.5 1.48782 20.5 0.824395 20.0607 0.412198C19.6213 0 18.9142 0 17.5 0Z" fill="#1D2741"/>
</svg>
