<svg width="38" height="38" viewBox="0 0 38 38" fill="none" xmlns="http://www.w3.org/2000/svg">
<g filter="url(#filter0_b_7005_795)">
<rect width="38" height="38" rx="12" fill="#FA4A0C" fill-opacity="0.1"/>
</g>
<path fill-rule="evenodd" clip-rule="evenodd" d="M12 26.9999C12 26.6685 12.2686 26.3999 12.6 26.3999H25.4C25.7314 26.3999 26 26.6685 26 26.9999C26 27.3313 25.7314 27.5999 25.4 27.5999H12.6C12.2686 27.5999 12 27.3313 12 26.9999Z" fill="#FA4A0C"/>
<path d="M18.6157 21.3432L18.6157 21.3432L23.349 16.6098C22.7048 16.3417 21.9418 15.9013 21.2202 15.1796C20.4985 14.4579 20.058 13.6948 19.7899 13.0505L15.0565 17.7839L15.0564 17.784C14.6871 18.1533 14.5024 18.338 14.3435 18.5417C14.1562 18.7819 13.9955 19.0418 13.8645 19.3168C13.7534 19.55 13.6708 19.7977 13.5056 20.2933L12.6345 22.9067C12.5532 23.1505 12.6166 23.4194 12.7984 23.6012C12.9802 23.783 13.2491 23.8464 13.4929 23.7652L16.1063 22.894C16.6019 22.7289 16.8497 22.6462 17.0828 22.5351C17.3578 22.4041 17.6177 22.2434 17.858 22.0561C18.0616 21.8972 18.2463 21.7125 18.6157 21.3432Z" fill="#FA4A0C"/>
<path d="M24.6625 15.2964C25.6453 14.3135 25.6453 12.72 24.6625 11.7371C23.6796 10.7543 22.0861 10.7543 21.1033 11.7371L20.5355 12.3048C20.5433 12.3283 20.5514 12.3521 20.5597 12.3762C20.7678 12.976 21.1604 13.7622 21.899 14.5008C22.6376 15.2394 23.4238 15.632 24.0236 15.8401C24.0476 15.8484 24.0713 15.8564 24.0947 15.8642L24.6625 15.2964Z" fill="#FA4A0C"/>
<defs>
<filter id="filter0_b_7005_795" x="-10.1609" y="-10.1609" width="58.3217" height="58.3217" filterUnits="userSpaceOnUse" color-interpolation-filters="sRGB">
<feFlood flood-opacity="0" result="BackgroundImageFix"/>
<feGaussianBlur in="BackgroundImageFix" stdDeviation="5.08043"/>
<feComposite in2="SourceAlpha" operator="in" result="effect1_backgroundBlur_7005_795"/>
<feBlend mode="normal" in="SourceGraphic" in2="effect1_backgroundBlur_7005_795" result="shape"/>
</filter>
</defs>
</svg>
