<svg width="38" height="38" viewBox="0 0 38 38" fill="none" xmlns="http://www.w3.org/2000/svg">
<g filter="url(#filter0_b_5823_7713)">
<rect width="38" height="38" rx="12" fill="#34B76F" fill-opacity="0.2"/>
</g>
<path d="M22.771 11.1013C22.1027 10.7573 21.2334 11.3123 19.4949 12.4223L19.0452 12.7094C18.5511 13.0249 18.3041 13.1826 18.0269 13.2278C17.7497 13.2731 17.4736 13.2008 16.9215 13.0562L16.4189 12.9245C14.476 12.4156 13.5046 12.1611 12.9484 12.705C12.3922 13.2488 12.6195 14.2308 13.0742 16.1949L13.1919 16.703C13.3211 17.2611 13.3857 17.5402 13.3332 17.8173C13.2808 18.0944 13.1172 18.3381 12.79 18.8257L12.4922 19.2695C11.3409 20.9852 10.7652 21.843 11.0897 22.5231C11.4143 23.2032 12.424 23.2551 14.4435 23.359L14.966 23.3859C15.5399 23.4154 15.8268 23.4301 16.0717 23.5561C16.3165 23.6821 16.4914 23.9051 16.8413 24.351L17.1599 24.757C18.3912 26.3263 19.0068 27.1109 19.7636 26.9874C20.5204 26.8638 20.9171 25.9139 21.7105 24.014L21.9158 23.5225C22.1413 22.9826 22.254 22.7127 22.4578 22.5135C22.6615 22.3142 22.9332 22.2083 23.4766 21.9963L23.9714 21.8034C25.8836 21.0576 26.8398 20.6847 26.983 19.9283C27.1262 19.1718 26.3616 18.5328 24.8325 17.2548L24.4369 16.9241C24.0023 16.561 23.785 16.3794 23.6662 16.1302C23.5473 15.8811 23.5403 15.5927 23.5262 15.0157L23.5134 14.4905C23.464 12.4603 23.4393 11.4452 22.771 11.1013Z" fill="#34B76F"/>
<path d="M25.0243 24.1757C24.7899 23.9414 24.4101 23.9414 24.1757 24.1757C23.9414 24.4101 23.9414 24.7899 24.1757 25.0243L25.7757 26.6243C26.01 26.8586 26.3899 26.8586 26.6243 26.6243C26.8586 26.3899 26.8586 26.0101 26.6243 25.7757L25.0243 24.1757Z" fill="#34B76F"/>
<defs>
<filter id="filter0_b_5823_7713" x="-10.1609" y="-10.1609" width="58.3217" height="58.3217" filterUnits="userSpaceOnUse" color-interpolation-filters="sRGB">
<feFlood flood-opacity="0" result="BackgroundImageFix"/>
<feGaussianBlur in="BackgroundImageFix" stdDeviation="5.08043"/>
<feComposite in2="SourceAlpha" operator="in" result="effect1_backgroundBlur_5823_7713"/>
<feBlend mode="normal" in="SourceGraphic" in2="effect1_backgroundBlur_5823_7713" result="shape"/>
</filter>
</defs>
</svg>
