<svg width="14" height="16" viewBox="0 0 14 16" fill="none" xmlns="http://www.w3.org/2000/svg">
<path d="M5 3.49992C4.72386 3.49992 4.5 3.72378 4.5 3.99992C4.5 4.27606 4.72386 4.49992 5 4.49992H9C9.27614 4.49992 9.5 4.27606 9.5 3.99992C9.5 3.72378 9.27614 3.49992 9 3.49992H5Z" fill="white"/>
<path fill-rule="evenodd" clip-rule="evenodd" d="M6.96167 0.833252C5.57996 0.833242 4.49144 0.833235 3.64085 0.948832C2.76748 1.06753 2.07073 1.31637 1.52323 1.86981C0.976463 2.4225 0.73128 3.1246 0.6142 4.00486C0.499984 4.86359 0.499991 5.963 0.5 7.36063V10.7593C0.499993 11.7643 0.499987 12.56 0.564006 13.1591C0.627274 13.7512 0.762982 14.2853 1.15056 14.6425C1.4615 14.929 1.85474 15.1097 2.27443 15.1577C2.79941 15.2178 3.28959 14.9671 3.77246 14.6251C4.26108 14.2789 4.85384 13.7547 5.60169 13.0932L5.62603 13.0717C5.97274 12.765 6.20748 12.5581 6.40333 12.4148C6.59261 12.2764 6.70818 12.2264 6.80559 12.2068C6.93395 12.1809 7.06605 12.1809 7.19441 12.2068C7.29182 12.2264 7.40739 12.2764 7.59667 12.4148C7.79252 12.5581 8.02726 12.765 8.37397 13.0717L8.39835 13.0932C9.14618 13.7547 9.73892 14.279 10.2275 14.6251C10.7104 14.9671 11.2006 15.2178 11.7256 15.1577C12.1453 15.1097 12.5385 14.929 12.8494 14.6425C13.237 14.2853 13.3727 13.7512 13.436 13.1591C13.5 12.56 13.5 11.7643 13.5 10.7593V7.36061C13.5 5.963 13.5 4.86359 13.3858 4.00486C13.2687 3.1246 13.0235 2.4225 12.4768 1.86981C11.9293 1.31637 11.2325 1.06753 10.3591 0.948832C9.50856 0.833235 8.42004 0.833242 7.03833 0.833252H6.96167ZM2.23413 2.5731C2.56531 2.23833 3.01501 2.04308 3.77552 1.93972C4.55097 1.83434 5.5715 1.83325 7 1.83325C8.4285 1.83325 9.44903 1.83434 10.2245 1.93972C10.985 2.04308 11.4347 2.23833 11.7659 2.5731C12.0978 2.90861 12.2919 3.36538 12.3945 4.1367C12.499 4.92186 12.5 5.95474 12.5 7.39826V10.7272C12.5 11.7714 12.4993 12.5134 12.4417 13.0529C12.3826 13.6058 12.2736 13.8133 12.1718 13.9071C12.0159 14.0508 11.8199 14.1404 11.6119 14.1642C11.4788 14.1794 11.2557 14.1279 10.8056 13.809C10.3665 13.498 9.81408 13.0104 9.03648 12.3226L9.01904 12.3072C8.6942 12.0199 8.42478 11.7816 8.18693 11.6076C7.93828 11.4258 7.68749 11.286 7.39188 11.2265C7.13318 11.1744 6.86682 11.1744 6.60812 11.2265C6.31251 11.286 6.06172 11.4258 5.81307 11.6076C5.57522 11.7816 5.30581 12.0199 4.98097 12.3072L4.96351 12.3226C4.18591 13.0104 3.63351 13.498 3.19443 13.809C2.7443 14.1279 2.52121 14.1794 2.38812 14.1642C2.18012 14.1404 1.98412 14.0508 1.82825 13.9071C1.72642 13.8133 1.61743 13.6058 1.55835 13.0529C1.50069 12.5134 1.5 11.7714 1.5 10.7272V7.39826C1.5 5.95474 1.50104 4.92186 1.60547 4.1367C1.70806 3.36538 1.90222 2.90861 2.23413 2.5731Z" fill="white"/>
</svg>
