<svg width="19" height="18" viewBox="0 0 19 18" fill="none" xmlns="http://www.w3.org/2000/svg">
<path d="M7.12836 3.28483C7.12836 3.03745 6.92782 2.83691 6.68045 2.83691C6.43307 2.83691 6.23253 3.03745 6.23253 3.28483V4.228C5.37293 4.29683 4.80862 4.46576 4.39403 4.88035C3.97943 5.29494 3.8105 5.85926 3.74167 6.71886H15.5914C15.5226 5.85926 15.3537 5.29494 14.9391 4.88035C14.5245 4.46576 13.9602 4.29683 13.1006 4.228V3.28483C13.1006 3.03745 12.9 2.83691 12.6527 2.83691C12.4053 2.83691 12.2048 3.03745 12.2048 3.28483V4.18837C11.8074 4.18066 11.3621 4.18066 10.861 4.18066H8.47211C7.97102 4.18066 7.52568 4.18066 7.12836 4.18837V3.28483Z" fill="#FA4A0C"/>
<path fill-rule="evenodd" clip-rule="evenodd" d="M3.69434 8.95844C3.69434 8.45735 3.69434 8.012 3.70204 7.61469H15.6311C15.6388 8.012 15.6388 8.45735 15.6388 8.95844V10.1529C15.6388 12.4052 15.6388 13.5313 14.9391 14.231C14.2394 14.9307 13.1133 14.9307 10.861 14.9307H8.47211C6.21985 14.9307 5.09371 14.9307 4.39403 14.231C3.69434 13.5313 3.69434 12.4052 3.69434 10.1529V8.95844ZM12.6527 10.1529C12.9825 10.1529 13.2499 9.8855 13.2499 9.55566C13.2499 9.22583 12.9825 8.95844 12.6527 8.95844C12.3228 8.95844 12.0554 9.22583 12.0554 9.55566C12.0554 9.8855 12.3228 10.1529 12.6527 10.1529ZM12.6527 12.5418C12.9825 12.5418 13.2499 12.2744 13.2499 11.9446C13.2499 11.6147 12.9825 11.3473 12.6527 11.3473C12.3228 11.3473 12.0554 11.6147 12.0554 11.9446C12.0554 12.2744 12.3228 12.5418 12.6527 12.5418ZM10.2638 9.55566C10.2638 9.8855 9.9964 10.1529 9.66656 10.1529C9.33672 10.1529 9.06934 9.8855 9.06934 9.55566C9.06934 9.22583 9.33672 8.95844 9.66656 8.95844C9.9964 8.95844 10.2638 9.22583 10.2638 9.55566ZM10.2638 11.9446C10.2638 12.2744 9.9964 12.5418 9.66656 12.5418C9.33672 12.5418 9.06934 12.2744 9.06934 11.9446C9.06934 11.6147 9.33672 11.3473 9.66656 11.3473C9.9964 11.3473 10.2638 11.6147 10.2638 11.9446ZM6.68045 10.1529C7.01028 10.1529 7.27767 9.8855 7.27767 9.55566C7.27767 9.22583 7.01028 8.95844 6.68045 8.95844C6.35061 8.95844 6.08322 9.22583 6.08322 9.55566C6.08322 9.8855 6.35061 10.1529 6.68045 10.1529ZM6.68045 12.5418C7.01028 12.5418 7.27767 12.2744 7.27767 11.9446C7.27767 11.6147 7.01028 11.3473 6.68045 11.3473C6.35061 11.3473 6.08322 11.6147 6.08322 11.9446C6.08322 12.2744 6.35061 12.5418 6.68045 12.5418Z" fill="#FA4A0C"/>
</svg>
