<svg width="19" height="19" viewBox="0 0 19 19" fill="none" xmlns="http://www.w3.org/2000/svg">
<path d="M12.7504 3.07275C12.503 3.07275 12.3024 3.27329 12.3024 3.52067C12.3024 3.76805 12.503 3.96859 12.7504 3.96859H14.6551L11.6167 7.00702C10.7897 6.32158 9.72783 5.90956 8.56977 5.90956C5.93108 5.90956 3.79199 8.04864 3.79199 10.6873C3.79199 13.326 5.93108 15.4651 8.56977 15.4651C11.2085 15.4651 13.3475 13.326 13.3475 10.6873C13.3475 9.52929 12.9355 8.46747 12.2501 7.64047L15.2886 4.60204V6.50678C15.2886 6.75416 15.4891 6.9547 15.7365 6.9547C15.9838 6.9547 16.1844 6.75416 16.1844 6.50678V3.52067C16.1844 3.27329 15.9838 3.07275 15.7365 3.07275H12.7504Z" fill="#FE6F98"/>
</svg>
