<svg width="28" height="28" viewBox="0 0 28 28" fill="none" xmlns="http://www.w3.org/2000/svg">
<g clip-path="url(#clip0_6194_1655)">
<path d="M5.87127 16.5349L6.3544 18.338C6.91836 20.4427 7.20034 21.4951 7.8396 22.1776C8.34436 22.7165 8.99758 23.0937 9.71668 23.2614C10.6274 23.4737 11.6798 23.1917 13.7845 22.6278C15.8893 22.0638 16.9416 21.7818 17.6242 21.1426C17.6808 21.0895 17.7357 21.0348 17.7887 20.9786C17.4768 20.9524 17.1622 20.9022 16.8425 20.8386C16.1928 20.7094 15.4208 20.5026 14.5078 20.2579L14.4081 20.2312L14.385 20.225C13.3916 19.9589 12.5616 19.736 11.8989 19.4966C11.202 19.2449 10.5688 18.9345 10.031 18.4309C9.29002 17.7368 8.77146 16.8386 8.54091 15.8499C8.37362 15.1324 8.42144 14.4288 8.55188 13.6994C8.67687 13.0004 8.90135 12.1627 9.1703 11.159L9.1703 11.159L9.66907 9.29761L9.68661 9.23215C7.8941 9.71502 6.9506 10.0007 6.3214 10.59C5.78248 11.0948 5.40534 11.748 5.23767 12.4671C5.02532 13.3778 5.3073 14.4302 5.87127 16.5349Z" fill="#ABB4C8"/>
<path fill-rule="evenodd" clip-rule="evenodd" d="M22.7403 12.8011L22.2572 14.6041C21.6932 16.7089 21.4112 17.7612 20.772 18.4438C20.2672 18.9827 19.614 19.3598 18.8949 19.5275C18.805 19.5484 18.7138 19.5646 18.6203 19.5761C17.7663 19.6815 16.7242 19.4022 14.8271 18.8939C12.7223 18.3299 11.6699 18.0479 10.9874 17.4087C10.4485 16.9039 10.0714 16.2507 9.90369 15.5316C9.69134 14.6209 9.97332 13.5685 10.5373 11.4638L11.0204 9.66071C11.1015 9.35809 11.1768 9.07703 11.2481 8.8159C11.6729 7.26092 11.9583 6.40544 12.5056 5.82107C13.0104 5.28215 13.6636 4.90501 14.3827 4.73734C15.2934 4.52499 16.3458 4.80697 18.4505 5.37093C20.5553 5.9349 21.6076 6.21688 22.2902 6.85614C22.8291 7.36089 23.2062 8.01412 23.3739 8.73321C23.5863 9.64394 23.3043 10.6963 22.7403 12.8011ZM13.6153 11.9521C13.7153 11.5787 14.0992 11.3571 14.4726 11.4572L18.9802 12.665C19.3537 12.7651 19.5753 13.1489 19.4752 13.5223C19.3751 13.8957 18.9913 14.1174 18.6179 14.0173L14.1102 12.8095C13.7368 12.7094 13.5152 12.3256 13.6153 11.9521ZM12.8902 14.6564C12.9903 14.283 13.3741 14.0614 13.7475 14.1615L16.4521 14.8862C16.8255 14.9862 17.0471 15.3701 16.9471 15.7435C16.847 16.1169 16.4632 16.3385 16.0898 16.2385L13.3852 15.5138C13.0117 15.4137 12.7901 15.0299 12.8902 14.6564Z" fill="#ABB4C8"/>
</g>
<defs>
<clipPath id="clip0_6194_1655">
<rect width="28" height="28" fill="white"/>
</clipPath>
</defs>
</svg>
