<svg width="24" height="25" viewBox="0 0 24 25" fill="none" xmlns="http://www.w3.org/2000/svg">
<path d="M8.6 4.75564C8.6 4.42427 8.33137 4.15564 8 4.15564C7.66863 4.15564 7.4 4.42427 7.4 4.75564V6.01905C6.24854 6.11125 5.49262 6.33754 4.93726 6.8929C4.3819 7.44826 4.15561 8.20418 4.06341 9.35564H19.9366C19.8444 8.20418 19.6181 7.44826 19.0627 6.8929C18.5074 6.33754 17.7515 6.11125 16.6 6.01905V4.75564C16.6 4.42427 16.3314 4.15564 16 4.15564C15.6686 4.15564 15.4 4.42427 15.4 4.75564V5.96596C14.8678 5.95564 14.2712 5.95564 13.6 5.95564H10.4C9.72877 5.95564 9.13221 5.95564 8.6 5.96596V4.75564Z" fill="#ABB4C8"/>
<path fill-rule="evenodd" clip-rule="evenodd" d="M4 12.3556C4 11.6844 4 11.0879 4.01032 10.5556H19.9897C20 11.0879 20 11.6844 20 12.3556V13.9556C20 16.9726 20 18.4811 19.0627 19.4184C18.1255 20.3556 16.617 20.3556 13.6 20.3556H10.4C7.38301 20.3556 5.87452 20.3556 4.93726 19.4184C4 18.4811 4 16.9726 4 13.9556V12.3556ZM16 13.9556C16.4418 13.9556 16.8 13.5975 16.8 13.1556C16.8 12.7138 16.4418 12.3556 16 12.3556C15.5582 12.3556 15.2 12.7138 15.2 13.1556C15.2 13.5975 15.5582 13.9556 16 13.9556ZM16 17.1556C16.4418 17.1556 16.8 16.7975 16.8 16.3556C16.8 15.9138 16.4418 15.5556 16 15.5556C15.5582 15.5556 15.2 15.9138 15.2 16.3556C15.2 16.7975 15.5582 17.1556 16 17.1556ZM12.8 13.1556C12.8 13.5975 12.4418 13.9556 12 13.9556C11.5582 13.9556 11.2 13.5975 11.2 13.1556C11.2 12.7138 11.5582 12.3556 12 12.3556C12.4418 12.3556 12.8 12.7138 12.8 13.1556ZM12.8 16.3556C12.8 16.7975 12.4418 17.1556 12 17.1556C11.5582 17.1556 11.2 16.7975 11.2 16.3556C11.2 15.9138 11.5582 15.5556 12 15.5556C12.4418 15.5556 12.8 15.9138 12.8 16.3556ZM8 13.9556C8.44183 13.9556 8.8 13.5975 8.8 13.1556C8.8 12.7138 8.44183 12.3556 8 12.3556C7.55817 12.3556 7.2 12.7138 7.2 13.1556C7.2 13.5975 7.55817 13.9556 8 13.9556ZM8 17.1556C8.44183 17.1556 8.8 16.7975 8.8 16.3556C8.8 15.9138 8.44183 15.5556 8 15.5556C7.55817 15.5556 7.2 15.9138 7.2 16.3556C7.2 16.7975 7.55817 17.1556 8 17.1556Z" fill="#ABB4C8"/>
</svg>
