<svg width="15" height="23" viewBox="0 0 15 23" fill="none" xmlns="http://www.w3.org/2000/svg">
<path d="M6.37367 22.4584V19.7361H3.65144V18.1918H6.37367V14.2629C4.5571 14.057 3.04068 13.2717 1.82441 11.907C0.608136 10.5423 0 8.9486 0 7.12586C0 5.14752 0.6967 3.46529 2.0901 2.07918C3.48347 0.69306 5.16872 0 7.14583 0C9.12295 0 10.8082 0.69306 12.2016 2.07918C13.595 3.46529 14.2917 5.14694 14.2917 7.12412C14.2917 8.94582 13.6835 10.5396 12.4673 11.9054C11.251 13.2711 9.73457 14.057 7.91799 14.2629V18.1918H10.6402V19.7361H7.91799V22.4584H6.37367ZM7.14107 12.7474C8.69383 12.7474 10.0164 12.2028 11.1088 11.1136C12.2012 10.0243 12.7474 8.70336 12.7474 7.1506C12.7474 5.59784 12.2028 4.27526 11.1136 3.18287C10.0243 2.09049 8.70336 1.54429 7.1506 1.54429C5.59783 1.54429 4.27526 2.0889 3.18287 3.17811C2.09048 4.26732 1.54429 5.58831 1.54429 7.14107C1.54429 8.69383 2.0889 10.0164 3.17811 11.1088C4.26732 12.2012 5.58831 12.7474 7.14107 12.7474Z" fill="#F85DA7"/>
</svg>
