<svg width="18" height="19" viewBox="0 0 18 19" fill="none" xmlns="http://www.w3.org/2000/svg">
<path d="M2.98633 9.49295C2.98633 8.93636 3.36702 8.46869 3.88223 8.33612L3.88223 10.6498C3.36702 10.5172 2.98633 10.0495 2.98633 9.49295Z" fill="#3BBAFB"/>
<path d="M14.9308 9.49295C14.9308 10.0495 14.5501 10.5172 14.0349 10.6498V8.33612C14.5501 8.46871 14.9308 8.93637 14.9308 9.49295Z" fill="#3BBAFB"/>
<path d="M13.1391 7.70128V11.2846C13.1391 11.5623 13.1391 11.7012 13.1086 11.8151C13.0257 12.1242 12.7843 12.3657 12.4751 12.4485C12.3612 12.4791 12.2224 12.4791 11.9447 12.4791C11.667 12.4791 11.5281 12.4791 11.4142 12.4485C11.105 12.3657 10.8636 12.1242 10.7807 11.8151C10.7502 11.7012 10.7502 11.5623 10.7502 11.2846V9.94086H7.16688V11.2846C7.16688 11.5623 7.16688 11.7012 7.13636 11.8151C7.05352 12.1242 6.81205 12.3657 6.50291 12.4485C6.38899 12.4791 6.25014 12.4791 5.97244 12.4791C5.69474 12.4791 5.55589 12.4791 5.44197 12.4485C5.13282 12.3657 4.89135 12.1242 4.80852 11.8151C4.77799 11.7012 4.77799 11.5623 4.77799 11.2846L4.77799 7.70128C4.77799 7.42358 4.77799 7.28473 4.80852 7.17081C4.89135 6.86167 5.13282 6.6202 5.44197 6.53736C5.55589 6.50684 5.69474 6.50684 5.97244 6.50684C6.25014 6.50684 6.38899 6.50684 6.50291 6.53736C6.81205 6.6202 7.05352 6.86167 7.13636 7.17081C7.16688 7.28473 7.16688 7.42358 7.16688 7.70128V9.04503H10.7502V7.70128C10.7502 7.42358 10.7502 7.28473 10.7807 7.17081C10.8636 6.86167 11.105 6.6202 11.4142 6.53736C11.5281 6.50684 11.667 6.50684 11.9447 6.50684C12.2224 6.50684 12.3612 6.50684 12.4751 6.53736C12.7843 6.6202 13.0257 6.86167 13.1086 7.17081C13.1391 7.28473 13.1391 7.42358 13.1391 7.70128Z" fill="#3BBAFB"/>
</svg>
